# xmcd
#
# Track frame offsets:
#	150
#	22750
#	40012
#	54914
#	79094
#	92816
#	117938
#	133514
#	154395
#	181165
#	202747
#	222411
#	233479
#	248812
#	259367
#	278703
#	296146
#	308374
#	323308
#	336919
#
# Disc length: 4760 seconds
#
# Revision: 1
# Processed by: cddbd v1.5.2PL0 Copyright (c) Steve Scherf et al.
# Submitted via: audiograbber 1.83.01
#
DISCID=08129614
DTITLE=100 Rock Hits - 100 Rock Hits [CD4)
DYEAR=2008
DGENRE=Rocl
TTITLE0=Asia-Only Time Will Tell (Live)
TTITLE1=Roger Chapman-Shape Of Things
TTITLE2=The Doobie Brothers-Rockin Down The Higway
TTITLE3=Steve Miller Band-The Joker (Live)
TTITLE4=Steely Dan-Roaring Of The Lamb
TTITLE5=Yes-Every Little Thing
TTITLE6=Girlschool-20 Century Boy (Live)
TTITLE7=Saxon-747 Strangers In The Night
TTITLE8=Motörhead-Another Perfect Day (Live)
TTITLE9=Snake-Holy Places
TTITLE10=Rush-Limelighr(Live)
TTITLE11=Canned Heat-Spoonful
TTITLE12=10cc-The Things We Do For Love (Live)
TTITLE13=Johnny Winter-Out Of Sight
TTITLE14=Steppenwolf-Magic Crapet Ride
TTITLE15=Roxy Music-Love Is The Drug (Live)
TTITLE16=Johnny Guitar Watson-Too Tired
TTITLE17=Steve Harley-Mr Soft (Live)
TTITLE18=Ike and Tina Turner-Proud Mary
TTITLE19=Kansas-Dust In The Wind (Live)
EXTD=
EXTT0=
EXTT1=
EXTT2=
EXTT3=
EXTT4=
EXTT5=
EXTT6=
EXTT7=
EXTT8=
EXTT9=
EXTT10=
EXTT11=
EXTT12=
EXTT13=
EXTT14=
EXTT15=
EXTT16=
EXTT17=
EXTT18=
EXTT19=
PLAYORDER=
